<svg xmlns="http://www.w3.org/2000/svg" viewBox="0 0 540 540"><defs><style>.cls-1,.cls-2,.cls-23,.cls-5{fill:#fff;}.cls-2,.cls-3{stroke:#4d60a0;}.cls-2,.cls-5{stroke-linecap:round;stroke-width:2.83px;}.cls-10,.cls-11,.cls-13,.cls-14,.cls-2,.cls-3,.cls-4,.cls-5,.cls-6,.cls-7,.cls-8{stroke-miterlimit:22.93;}.cls-3,.cls-4{fill:#4d60a0;}.cls-14,.cls-3,.cls-4,.cls-6,.cls-7{stroke-width:0.57px;}.cls-10,.cls-4,.cls-8{stroke:#667cb4;}.cls-11,.cls-13,.cls-5{stroke:#b32f5f;}.cls-12,.cls-6{fill:#b32f5f;}.cls-6{stroke:#b45d7d;}.cls-10,.cls-11,.cls-13,.cls-7,.cls-8{fill:none;}.cls-7{stroke:#231f20;}.cls-10,.cls-8{stroke-width:1.42px;stroke-dasharray:7.09 1.42;}.cls-9{fill:#667cb4;}.cls-10,.cls-13{fill-rule:evenodd;}.cls-11,.cls-13{stroke-width:1.98px;stroke-dasharray:9.92 1.98 1.98 1.98 1.98 1.98;}.cls-14{fill:#64407e;stroke:#704c8a;}.cls-15,.cls-27{font-size:14px;}.cls-15,.cls-19,.cls-27{fill:#231f20;}.cls-15,.cls-23{font-family:IBMPlexSans-Bold, IBM Plex Sans;font-weight:700;}.cls-16{letter-spacing:-0.01em;}.cls-17{letter-spacing:-0.03em;}.cls-18{letter-spacing:-0.06em;}.cls-19,.cls-23{font-size:12px;}.cls-19,.cls-27{font-family:IBMPlexSans, IBM Plex Sans;}.cls-20{letter-spacing:-0.01em;}.cls-21{letter-spacing:0em;}.cls-22{letter-spacing:0em;}.cls-24{letter-spacing:0em;}.cls-25{letter-spacing:-0.01em;}.cls-26{letter-spacing:0em;}.cls-28{letter-spacing:0em;}.cls-29{letter-spacing:0em;}</style></defs><title>kafka_overview</title><g id="Background"><rect class="cls-1" x="3.99" y="6.2" width="532.6" height="400.2"/></g><g id="Graphics"><rect class="cls-2" x="376.22" y="264.68" width="158.56" height="127.26"/><rect class="cls-3" x="417.87" y="342.38" width="76.54" height="26.98"/><rect class="cls-4" x="417.87" y="299.87" width="76.54" height="26.98"/><rect class="cls-5" x="376.22" y="14.95" width="158.56" height="211.18"/><rect class="cls-6" x="417.87" y="177.69" width="76.54" height="26.98"/><rect class="cls-6" x="417.87" y="135.17" width="76.54" height="26.98"/><rect class="cls-6" x="417.87" y="92.65" width="76.54" height="26.98"/><rect class="cls-6" x="417.87" y="50.13" width="76.54" height="26.98"/><rect class="cls-7" x="167.45" y="199.17" width="17.57" height="60.71" rx="3.08" ry="3.08"/><rect class="cls-7" x="185.03" y="199.17" width="17.57" height="60.71" rx="3.08" ry="3.08"/><rect class="cls-7" x="202.6" y="199.17" width="17.57" height="60.71" rx="3.08" ry="3.08"/><rect class="cls-7" x="220.18" y="199.17" width="17.57" height="60.71" rx="3.08" ry="3.08"/><rect class="cls-7" x="167.45" y="103.92" width="17.57" height="60.71" rx="3.08" ry="3.08"/><rect class="cls-7" x="185.03" y="103.92" width="17.57" height="60.71" rx="3.08" ry="3.08"/><rect class="cls-7" x="202.6" y="103.92" width="17.57" height="60.71" rx="3.08" ry="3.08"/><rect class="cls-7" x="220.18" y="103.92" width="17.57" height="60.71" rx="3.08" ry="3.08"/><rect class="cls-7" x="237.75" y="103.92" width="17.57" height="60.71" rx="3.08" ry="3.08"/><rect class="cls-7" x="255.32" y="103.92" width="17.57" height="60.71" rx="3.08" ry="3.08"/><rect class="cls-7" x="272.9" y="103.92" width="17.57" height="60.71" rx="3.08" ry="3.08"/><rect class="cls-7" x="290.47" y="103.92" width="17.57" height="60.71" rx="3.08" ry="3.08"/><rect class="cls-7" x="167.45" y="293.28" width="17.57" height="60.71" rx="3.08" ry="3.08"/><rect class="cls-7" x="185.03" y="293.28" width="17.57" height="60.71" rx="3.08" ry="3.08"/><rect class="cls-7" x="202.6" y="293.28" width="17.57" height="60.71" rx="3.08" ry="3.08"/><rect class="cls-7" x="220.18" y="293.28" width="17.57" height="60.71" rx="3.08" ry="3.08"/><rect class="cls-7" x="237.75" y="293.28" width="17.57" height="60.71" rx="3.08" ry="3.08"/><rect class="cls-7" x="255.32" y="293.28" width="17.57" height="60.71" rx="3.08" ry="3.08"/><path class="cls-8" d="M84.33,229.61h78"/><polygon class="cls-9" points="161.33 233.14 167.45 229.61 161.33 226.07 161.33 233.14"/><path class="cls-10" d="M122.22,323.43V133.8"/><path class="cls-8" d="M123.07,134.36h38.85"/><polygon class="cls-9" points="160.88 137.9 167 134.36 160.88 130.83 160.88 137.9"/><path class="cls-8" d="M123.07,322.77h38.85"/><polygon class="cls-9" points="160.88 326.3 167 322.77 160.88 319.23 160.88 326.3"/><path class="cls-10" d="M238.25,229.61H333.4"/><path class="cls-10" d="M273,323.43h73.7"/><path class="cls-8" d="M333.4,355.73h79.39"/><polygon class="cls-9" points="411.75 359.26 417.87 355.73 411.75 352.19 411.75 359.26"/><path class="cls-11" d="M333.4,106h77.35"/><polygon class="cls-12" points="409.3 110.9 417.87 105.95 409.3 101 409.3 110.9"/><path class="cls-11" d="M319.51,63.71h91.24"/><polygon class="cls-12" points="409.3 68.66 417.87 63.71 409.3 58.77 409.3 68.66"/><path class="cls-11" d="M346.39,148.75h64.36"/><polygon class="cls-12" points="409.3 153.7 417.87 148.75 409.3 143.81 409.3 153.7"/><path class="cls-10" d="M346.72,354.71V323.43"/><path class="cls-10" d="M333.4,354.31V229.61"/><path class="cls-13" d="M346.72,320.31V148.75"/><path class="cls-13" d="M333.4,225.64V105.51"/><path class="cls-13" d="M319.51,129.78V63.4"/><path class="cls-13" d="M309,129.48h10.54"/><path class="cls-8" d="M319.51,312.36h93.28"/><polygon class="cls-9" points="411.75 315.89 417.87 312.36 411.75 308.82 411.75 315.89"/><path class="cls-10" d="M319.51,311.81v-174"/><path class="cls-10" d="M308.89,138.49h10.62"/><rect class="cls-14" x="7.17" y="215.83" width="76.54" height="26.98"/></g><g id="text"><text class="cls-15" transform="translate(211.44 63.92)"><tspan class="cls-16">m</tspan><tspan class="cls-17" x="12.4" y="0">y</tspan><tspan class="cls-18" x="19.46" y="0">T</tspan><tspan x="26.73" y="0">opic</tspan></text><text class="cls-19" transform="translate(166 97.3)"><tspan class="cls-20">P</tspan><tspan class="cls-21" x="7.15" y="0">a</tspan><tspan class="cls-22" x="13.56" y="0">r</tspan><tspan x="18.01" y="0">tition 0</tspan></text><text class="cls-19" transform="translate(166 192.3)"><tspan class="cls-20">P</tspan><tspan class="cls-21" x="7.15" y="0">a</tspan><tspan class="cls-22" x="13.56" y="0">r</tspan><tspan x="18.01" y="0">tition 1</tspan></text><text class="cls-19" transform="translate(167 286.3)"><tspan class="cls-20">P</tspan><tspan class="cls-21" x="7.15" y="0">a</tspan><tspan class="cls-22" x="13.56" y="0">r</tspan><tspan x="18.01" y="0">tition 2</tspan></text><text class="cls-23" transform="translate(19.79 234.14)"><tspan class="cls-20">P</tspan><tspan class="cls-24" x="7.75" y="0">r</tspan><tspan x="12.54" y="0">odu</tspan><tspan class="cls-25" x="33.76" y="0">c</tspan><tspan class="cls-26" x="39.9" y="0">er</tspan></text><text class="cls-23" transform="translate(427.78 153.63)">Consumer</text><text class="cls-23" transform="translate(427.68 195.81)">Consumer</text><text class="cls-23" transform="translate(427.6 110.63)">Consumer</text><text class="cls-23" transform="translate(427.6 68.11)">Consumer</text><text class="cls-23" transform="translate(427.68 317.31)">Consumer</text><text class="cls-23" transform="translate(427.68 359.36)">Consumer</text><text class="cls-27" transform="translate(394.98 284.28)">Consumer G<tspan class="cls-28" x="77.33" y="0">r</tspan><tspan class="cls-29" x="82.4" y="0">oup B</tspan></text><text class="cls-27" transform="translate(394.98 35.47)">Consumer G<tspan class="cls-28" x="77.33" y="0">r</tspan><tspan class="cls-29" x="82.4" y="0">oup A</tspan></text><text class="cls-19" transform="translate(172.91 137.64)">0</text><text class="cls-19" transform="translate(189.91 137.64)">1</text><text class="cls-19" transform="translate(207.79 137.64)">2</text><text class="cls-19" transform="translate(224.78 137.64)">3</text><text class="cls-19" transform="translate(243.18 137.64)">4</text><text class="cls-19" transform="translate(260.54 137.64)">5</text><text class="cls-19" transform="translate(278.36 137.64)">6</text><text class="cls-19" transform="translate(295.92 137.64)">7</text><text class="cls-19" transform="translate(172.91 327.3)">0</text><text class="cls-19" transform="translate(189.91 327.3)">1</text><text class="cls-19" transform="translate(207.79 327.3)">2</text><text class="cls-19" transform="translate(224.78 327.3)">3</text><text class="cls-19" transform="translate(243.18 327.3)">4</text><text class="cls-19" transform="translate(260.54 327.3)">5</text><text class="cls-19" transform="translate(172.91 232.3)">0</text><text class="cls-19" transform="translate(189.91 232.3)">1</text><text class="cls-19" transform="translate(207.79 232.3)">2</text><text class="cls-19" transform="translate(224.78 232.3)">3</text></g></svg>