<?xml version="1.0" encoding="utf-8"?>
<!-- Generator: Adobe Illustrator 19.0.0, SVG Export Plug-In . SVG Version: 6.00 Build 0)  -->
<svg version="1.1" xmlns="http://www.w3.org/2000/svg" xmlns:xlink="http://www.w3.org/1999/xlink" x="0px" y="0px"
	 viewBox="0 0 540 540" style="enable-background:new 0 0 540 540;" xml:space="preserve">
<style type="text/css">
	.st0{fill-rule:evenodd;clip-rule:evenodd;fill:#FFFFFF;}
	
		.st1{fill-rule:evenodd;clip-rule:evenodd;fill:#FFFFFF;stroke:#4D60A0;stroke-width:2.8346;stroke-linecap:round;stroke-miterlimit:22.9256;}
	.st2{fill-rule:evenodd;clip-rule:evenodd;fill:#4D60A0;stroke:#4D60A0;stroke-width:0.5669;stroke-miterlimit:22.9256;}
	.st3{fill-rule:evenodd;clip-rule:evenodd;fill:#4D60A0;stroke:#667CB4;stroke-width:0.5669;stroke-miterlimit:22.9256;}
	
		.st4{fill-rule:evenodd;clip-rule:evenodd;fill:#FFFFFF;stroke:#B32F5F;stroke-width:2.8346;stroke-linecap:round;stroke-miterlimit:22.9256;}
	.st5{fill-rule:evenodd;clip-rule:evenodd;fill:#B32F5F;stroke:#B45D7D;stroke-width:0.5669;stroke-miterlimit:22.9256;}
	.st6{fill-rule:evenodd;clip-rule:evenodd;fill:none;stroke:#000000;stroke-width:0.5669;stroke-miterlimit:22.9256;}
	.st7{fill:none;stroke:#667CB4;stroke-width:1.4173;stroke-miterlimit:22.9256;stroke-dasharray:7.0866,1.4173;}
	.st8{fill:#667CB4;}
	
		.st9{fill-rule:evenodd;clip-rule:evenodd;fill:none;stroke:#667CB4;stroke-width:1.4173;stroke-miterlimit:22.9256;stroke-dasharray:7.0866,1.4173;}
	
		.st10{fill:none;stroke:#B32F5F;stroke-width:1.9843;stroke-miterlimit:22.9256;stroke-dasharray:9.9213,1.9843,1.9843,1.9843,1.9843,1.9843;}
	.st11{fill:#B32F5F;}
	
		.st12{fill-rule:evenodd;clip-rule:evenodd;fill:none;stroke:#B32F5F;stroke-width:1.9843;stroke-miterlimit:22.9256;stroke-dasharray:9.9213,1.9843,1.9843,1.9843,1.9843,1.9843;}
	.st13{fill-rule:evenodd;clip-rule:evenodd;fill:#64407E;stroke:#704C8A;stroke-width:0.5669;stroke-miterlimit:22.9256;}
	.st14{font-family:'IBMPlexSans-Bold';}
	.st15{font-size:14px;}
	.st16{font-family:'IBMPlexSans';}
	.st17{font-size:12px;}
	.st18{fill:#FFFFFF;}
	.st19{font-size:11px;}
</style>
<g id="Background">
	<rect x="4" y="6.2" class="st0" width="532.6" height="400.2"/>
</g>
<g id="Graphics">
	<rect x="376.2" y="264.7" class="st1" width="158.6" height="127.3"/>
	<rect x="417.9" y="342.4" class="st2" width="76.5" height="27"/>
	<rect x="417.9" y="299.9" class="st3" width="76.5" height="27"/>
	<rect x="376.2" y="15" class="st4" width="158.6" height="211.2"/>
	<rect x="417.9" y="177.7" class="st5" width="76.5" height="27"/>
	<rect x="417.9" y="135.2" class="st5" width="76.5" height="27"/>
	<rect x="417.9" y="92.7" class="st5" width="76.5" height="27"/>
	<rect x="417.9" y="50.1" class="st5" width="76.5" height="27"/>
	<path class="st6" d="M170.5,199.2h11.4c1.7,0,3.1,1.4,3.1,3.1v54.6c0,1.7-1.4,3.1-3.1,3.1h-11.4c-1.7,0-3.1-1.4-3.1-3.1v-54.6
		C167.5,200.5,168.8,199.2,170.5,199.2z"/>
	<path class="st6" d="M188.1,199.2h11.4c1.7,0,3.1,1.4,3.1,3.1v54.6c0,1.7-1.4,3.1-3.1,3.1h-11.4c-1.7,0-3.1-1.4-3.1-3.1v-54.6
		C185,200.5,186.4,199.2,188.1,199.2z"/>
	<path class="st6" d="M205.7,199.2h11.4c1.7,0,3.1,1.4,3.1,3.1v54.6c0,1.7-1.4,3.1-3.1,3.1h-11.4c-1.7,0-3.1-1.4-3.1-3.1v-54.6
		C202.6,200.5,204,199.2,205.7,199.2z"/>
	<path class="st6" d="M223.3,199.2h11.4c1.7,0,3.1,1.4,3.1,3.1v54.6c0,1.7-1.4,3.1-3.1,3.1h-11.4c-1.7,0-3.1-1.4-3.1-3.1v-54.6
		C220.2,200.5,221.6,199.2,223.3,199.2z"/>
	<path class="st6" d="M170.5,103.9h11.4c1.7,0,3.1,1.4,3.1,3.1v54.6c0,1.7-1.4,3.1-3.1,3.1h-11.4c-1.7,0-3.1-1.4-3.1-3.1V107
		C167.5,105.3,168.8,103.9,170.5,103.9z"/>
	<path class="st6" d="M188.1,103.9h11.4c1.7,0,3.1,1.4,3.1,3.1v54.6c0,1.7-1.4,3.1-3.1,3.1h-11.4c-1.7,0-3.1-1.4-3.1-3.1V107
		C185,105.3,186.4,103.9,188.1,103.9z"/>
	<path class="st6" d="M205.7,103.9h11.4c1.7,0,3.1,1.4,3.1,3.1v54.6c0,1.7-1.4,3.1-3.1,3.1h-11.4c-1.7,0-3.1-1.4-3.1-3.1V107
		C202.6,105.3,204,103.9,205.7,103.9z"/>
	<path class="st6" d="M223.3,103.9h11.4c1.7,0,3.1,1.4,3.1,3.1v54.6c0,1.7-1.4,3.1-3.1,3.1h-11.4c-1.7,0-3.1-1.4-3.1-3.1V107
		C220.2,105.3,221.6,103.9,223.3,103.9z"/>
	<path class="st6" d="M240.8,103.9h11.4c1.7,0,3.1,1.4,3.1,3.1v54.6c0,1.7-1.4,3.1-3.1,3.1h-11.4c-1.7,0-3.1-1.4-3.1-3.1V107
		C237.8,105.3,239.1,103.9,240.8,103.9z"/>
	<path class="st6" d="M258.4,103.9h11.4c1.7,0,3.1,1.4,3.1,3.1v54.6c0,1.7-1.4,3.1-3.1,3.1h-11.4c-1.7,0-3.1-1.4-3.1-3.1V107
		C255.3,105.3,256.7,103.9,258.4,103.9z"/>
	<path class="st6" d="M276,103.9h11.4c1.7,0,3.1,1.4,3.1,3.1v54.6c0,1.7-1.4,3.1-3.1,3.1H276c-1.7,0-3.1-1.4-3.1-3.1V107
		C272.9,105.3,274.3,103.9,276,103.9z"/>
	<path class="st6" d="M293.6,103.9H305c1.7,0,3.1,1.4,3.1,3.1v54.6c0,1.7-1.4,3.1-3.1,3.1h-11.4c-1.7,0-3.1-1.4-3.1-3.1V107
		C290.5,105.3,291.9,103.9,293.6,103.9z"/>
	<path class="st6" d="M170.5,293.3h11.4c1.7,0,3.1,1.4,3.1,3.1v54.6c0,1.7-1.4,3.1-3.1,3.1h-11.4c-1.7,0-3.1-1.4-3.1-3.1v-54.6
		C167.5,294.7,168.8,293.3,170.5,293.3z"/>
	<path class="st6" d="M188.1,293.3h11.4c1.7,0,3.1,1.4,3.1,3.1v54.6c0,1.7-1.4,3.1-3.1,3.1h-11.4c-1.7,0-3.1-1.4-3.1-3.1v-54.6
		C185,294.7,186.4,293.3,188.1,293.3z"/>
	<path class="st6" d="M205.7,293.3h11.4c1.7,0,3.1,1.4,3.1,3.1v54.6c0,1.7-1.4,3.1-3.1,3.1h-11.4c-1.7,0-3.1-1.4-3.1-3.1v-54.6
		C202.6,294.7,204,293.3,205.7,293.3z"/>
	<path class="st6" d="M223.3,293.3h11.4c1.7,0,3.1,1.4,3.1,3.1v54.6c0,1.7-1.4,3.1-3.1,3.1h-11.4c-1.7,0-3.1-1.4-3.1-3.1v-54.6
		C220.2,294.7,221.6,293.3,223.3,293.3z"/>
	<path class="st6" d="M240.8,293.3h11.4c1.7,0,3.1,1.4,3.1,3.1v54.6c0,1.7-1.4,3.1-3.1,3.1h-11.4c-1.7,0-3.1-1.4-3.1-3.1v-54.6
		C237.8,294.7,239.1,293.3,240.8,293.3z"/>
	<path class="st6" d="M258.4,293.3h11.4c1.7,0,3.1,1.4,3.1,3.1v54.6c0,1.7-1.4,3.1-3.1,3.1h-11.4c-1.7,0-3.1-1.4-3.1-3.1v-54.6
		C255.3,294.7,256.7,293.3,258.4,293.3z"/>
	<g>
		<g>
			<path class="st7" d="M84.3,229.6c50.4,0,70.2,0,78,0"/>
			<g>
				<polygon class="st8" points="161.3,233.1 167.5,229.6 161.3,226.1 				"/>
			</g>
		</g>
	</g>
	<path class="st9" d="M122.2,323.4c0-189.6,0-189.6,0-189.6"/>
	<g>
		<g>
			<path class="st7" d="M123.1,134.4c22.5,0,33.5,0,38.8,0"/>
			<g>
				<polygon class="st8" points="160.9,137.9 167,134.4 160.9,130.8 				"/>
			</g>
		</g>
	</g>
	<g>
		<g>
			<path class="st7" d="M123.1,322.8c22.5,0,33.5,0,38.8,0"/>
			<g>
				<polygon class="st8" points="160.9,326.3 167,322.8 160.9,319.2 				"/>
			</g>
		</g>
	</g>
	<path class="st9" d="M238.2,229.6c95.2,0,95.2,0,95.2,0"/>
	<path class="st9" d="M273,323.4c73.7,0,73.7,0,73.7,0"/>
	<g>
		<g>
			<path class="st7" d="M333.4,355.7c51.4,0,71.5,0,79.4,0"/>
			<g>
				<polygon class="st8" points="411.7,359.3 417.9,355.7 411.7,352.2 				"/>
			</g>
		</g>
	</g>
	<g>
		<g>
			<path class="st10" d="M333.4,105.9c47.4,0,68.2,0,77.4,0"/>
			<g>
				<polygon class="st11" points="409.3,110.9 417.9,105.9 409.3,101 				"/>
			</g>
		</g>
	</g>
	<g>
		<g>
			<path class="st10" d="M319.5,63.7c57.4,0,81.3,0,91.2,0"/>
			<g>
				<polygon class="st11" points="409.3,68.7 417.9,63.7 409.3,58.8 				"/>
			</g>
		</g>
	</g>
	<g>
		<g>
			<path class="st10" d="M346.4,148.8c38.4,0,56.1,0,64.4,0"/>
			<g>
				<polygon class="st11" points="409.3,153.7 417.9,148.8 409.3,143.8 				"/>
			</g>
		</g>
	</g>
	<path class="st9" d="M346.7,354.7c0-31.3,0-31.3,0-31.3"/>
	<path class="st9" d="M333.4,354.3c0-124.7,0-124.7,0-124.7"/>
	<path class="st12" d="M346.7,320.3c0-171.6,0-171.6,0-171.6"/>
	<path class="st12" d="M333.4,225.6c0-120.1,0-120.1,0-120.1"/>
	<path class="st12" d="M319.5,129.8c0-66.4,0-66.4,0-66.4"/>
	<path class="st12" d="M309,129.5c10.5,0,10.5,0,10.5,0"/>
	<g>
		<g>
			<path class="st7" d="M319.5,312.4c61.7,0,84.7,0,93.3,0"/>
			<g>
				<polygon class="st8" points="411.7,315.9 417.9,312.4 411.7,308.8 				"/>
			</g>
		</g>
	</g>
	<path class="st9" d="M319.5,311.8c0-174,0-174,0-174"/>
	<path class="st9" d="M308.9,138.5c10.6,0,10.6,0,10.6,0"/>
	<rect x="7.2" y="215.8" class="st13" width="76.5" height="27"/>
</g>
<g id="text">
	<text transform="matrix(1 0 0 1 211.442 63.9191)" class="st14 st15">myTopic</text>
	<text transform="matrix(1 0 0 1 166 97.302)" class="st16 st17">Partição 0</text>
	<text transform="matrix(1 0 0 1 166 192.302)" class="st16 st17">Partição 1</text>
	<text transform="matrix(1 0 0 1 167 286.302)" class="st16 st17">Partição 2</text>
	<text transform="matrix(1 0 0 1 19.7865 234.1412)" class="st18 st14 st17">Produtor</text>
	<text transform="matrix(1 0 0 1 422.7758 153.6301)" class="st18 st14 st17">Consumidor</text>
	<text transform="matrix(1 0 0 1 422.6796 195.8079)" class="st18 st14 st17">Consumidor</text>
	<text transform="matrix(1 0 0 1 422.5962 110.6301)" class="st18 st14 st17">Consumidor</text>
	<text transform="matrix(1 0 0 1 422.5963 68.1111)" class="st18 st14 st17">Consumidor</text>
	<text transform="matrix(1 0 0 1 424.6795 317.3126)" class="st18 st14 st19">Consumidor</text>
	<text transform="matrix(1 0 0 1 424.6794 359.3629)" class="st18 st14 st19">Consumidor</text>
	<text transform="matrix(1 0 0 1 385.9838 284.2755)" class="st16 st17">Grupo de consumidores B</text>
	<text transform="matrix(1 0 0 1 386.9842 35.4748)" class="st16 st17">Grupo de consumidores A</text>
	<text transform="matrix(1 0 0 1 172.9143 137.6353)" class="st16 st17">0</text>
	<text transform="matrix(1 0 0 1 189.9113 137.6354)" class="st16 st17">1</text>
	<text transform="matrix(1 0 0 1 207.7912 137.6355)" class="st16 st17">2</text>
	<text transform="matrix(1 0 0 1 224.7802 137.6351)" class="st16 st17">3</text>
	<text transform="matrix(1 0 0 1 243.1803 137.6353)" class="st16 st17">4</text>
	<text transform="matrix(1 0 0 1 260.5433 137.6354)" class="st16 st17">5</text>
	<text transform="matrix(1 0 0 1 278.3629 137.6357)" class="st16 st17">6</text>
	<text transform="matrix(1 0 0 1 295.9162 137.635)" class="st16 st17">7</text>
	<text transform="matrix(1 0 0 1 172.9141 327.302)" class="st16 st17">0</text>
	<text transform="matrix(1 0 0 1 189.911 327.3021)" class="st16 st17">1</text>
	<text transform="matrix(1 0 0 1 207.791 327.3022)" class="st16 st17">2</text>
	<text transform="matrix(1 0 0 1 224.7799 327.3018)" class="st16 st17">3</text>
	<text transform="matrix(1 0 0 1 243.1801 327.302)" class="st16 st17">4</text>
	<text transform="matrix(1 0 0 1 260.5432 327.3021)" class="st16 st17">5</text>
	<text transform="matrix(1 0 0 1 172.9141 232.302)" class="st16 st17">0</text>
	<text transform="matrix(1 0 0 1 189.911 232.3021)" class="st16 st17">1</text>
	<text transform="matrix(1 0 0 1 207.791 232.3022)" class="st16 st17">2</text>
	<text transform="matrix(1 0 0 1 224.7799 232.3018)" class="st16 st17">3</text>
</g>
</svg>
